<svg version="1.2" xmlns="http://www.w3.org/2000/svg" viewBox="0 0 876 278" width="876" height="278">
	<title>perpetuai-logo-color-svg</title>
	<style>
		.s0 { fill: #0081c9 } 
		.s1 { fill: #425363 } 
	</style>
	<g id="Layer 1">
		<g id="&lt;Group&gt;">
			<path id="&lt;Compound Path&gt;" fill-rule="evenodd" class="s0" d="m234 177.3c-11.3 10.6-24.7 15.6-40.1 14.5-14.4-0.9-26.5-6.8-35.6-18.2-0.8-1-1.4-2.2-2.2-3.6 0.2 0.1 4.4 2 8-0.5 2.3-1.5 3.1-4 3.3-5.8 0.3-4-2.6-8.1-7.3-10-3.3 3.8-8.1 9.4-14.3 15.6-16.1 15.8-30.7 30.2-52.6 34.6-13.4 2.6-24.2 0.4-27.3-0.3-9-2-17.6-6.1-25.6-12.3-13.1-9.9-21-23.2-24.1-39.5-1.8-9-1.9-17.5-0.4-25.6 0.6-3.7 3.3-17.3 13.9-31 5.9-7.6 12.2-12.6 16.6-15.6q1.4 1.2 2.9 2.4c-4.3 2.9-23.1 16.1-28.7 41.3-0.8 4-4.3 21.4 3.9 40.2 4 9.1 9.2 15.2 11.6 17.8 9.2 9.9 19.1 14 21.6 15q4.6 1.8 9.7 2.9c7.3 1.4 14.6 1.7 22 0.6 11-1.6 20.9-5.7 29.5-12.5 5.8-4.6 11-10.1 16.1-15.5 6.4-7 12.4-14.3 18.6-21.5 3-3.5 6.1-6.9 9.3-10.6 1.8 3.6 3.1 7 5.1 10.1 7.1 10.6 17.1 15.2 29.8 14.8 12.7-0.4 24.1-10.8 25.6-23.4 1.7-13.9-5.8-25.3-18.7-30.4-9.7-3.7-18.8-0.9-27.4 3.8-8.5 4.6-14.8 11.6-20.9 18.8-5.9 7-11.7 13.9-17.7 20.8-6.5 7.5-10.6 13.1-18 20.1-5.5 5.1-8.4 7.1-9.8 8.1-8.1 5.3-15.6 7.3-18.6 7.9-16.3 3.6-31.1 0.5-44.3-9.7-10-7.8-17.1-17.7-19.9-30.1-3-12.9-1.9-25.5 4.3-37.5 8.1-15.4 20.7-25.1 38-27.9 17-2.8 32.4 1.6 46.1 12.1 5.9 4.5 11 9.8 14.7 16-2.2 2.4-4.3 4.6-6.6 7.1-8.6-13.7-20.2-23-36.1-25.7-4.2-0.7-13-2-23.3 1.6-9.9 3.5-16 9.8-18.7 13.1q3.5 2.4 7 4.9c2-2.2 5.3-5.5 10.3-8.1 11.2-6 22.2-4 25.8-3.3 7.8 1.5 13.2 4.9 15.5 6.4 8.9 6.1 13 14 14.6 17.6q-3.1 3.6-6.3 7.2c-2.2-3.5-4.3-7-6.7-10.3-4.6-6.5-11.2-10.5-18.9-11.6-15.5-2.3-29.5 4.3-32.8 20.9-0.5 2.4-1.7 9.2 1.6 16.4 5.3 11.4 17.7 14.2 19 14.5 11 2.2 19.9-3.2 25.6-6.7 5.6-3.4 10.8-9.3 21-21.2 7.6-8.8 9.2-11.2 17.1-20.1 4-4.6 8.2-9.1 12.7-13.2 8.5-7.9 18.3-14 29.6-16.8 17-4.3 33.3-2.1 47.6 8.7 11.6 8.6 19.4 20.1 21.6 34.5 2.9 18.8-2.6 35.1-16.7 48.2zm-182.6-19c-2-2.5-5.4-7.7-6.7-15.1-1.8-10.9 2.4-19.5 3.9-22.2q-3.4-2.3-6.8-4.5c-0.4 0.5-0.9 1.1-1.4 2-7.6 12.4-4.5 26.5-4 28.3 1.8 7.6 5.6 13.1 8.3 16.3q3.4-2.4 6.7-4.8zm189-30.6c-5.9-23.2-27.6-37.3-50.5-33.8-13.3 2-24.6 8.6-34.5 17.4-5.5 4.9-10.5 10.4-15.4 15.9-6.3 6.8-12.4 13.8-18.5 20.8-6.4 7.3-13.1 14.4-21.5 19.6-4.7 2.9-15.5 8.3-27.9 5-6.7-1.8-11.3-5.6-13.8-8q-3.5 3.1-7 6.3c1 0.8 1.9 1.5 2.8 2.2 9.4 7.4 20.3 10.3 31.9 8.8 11.2-1.4 21-6.8 29-14.7 8.9-8.7 17-18.2 25.3-27.5 8.3-9.2 16.2-18.8 26.3-26 8.2-5.9 16.9-10.7 27-11.6 13.1-1.1 24.4 3 32.7 13.6 6.6 8.4 9.1 18.2 6.5 28.8-0.8 3.5-1.9 6.2-2.4 7.3-1.2 2.7-2.6 4.9-3.8 6.5q3 3.1 5.9 6.1c7.6-9.1 11.2-23.8 7.9-36.7zm-13.8 42.8c-1.8-1.7-3.6-3.4-5.6-5.3-2.6 2.2-9.7 7.7-20.3 8.7-13.3 1.4-22.9-5.1-25.4-6.8q-1.7 3.4-3.5 6.7c3 2.1 13.4 8.9 28.1 8 14.6-0.9 24.1-8.8 26.7-11.3z"/>
			<path id="&lt;Compound Path&gt;" fill-rule="evenodd" class="s1" d="m275.9 147.6c-0.6 11.4-3.5 22.4-7.9 33-5.9 14.2-13.8 27.1-24.3 38.4-6.4 6.9-13.1 13.6-19.9 20.7 1 1.5 1.5 3.4 1.5 5.4 0 5.8-4.7 10.5-10.5 10.5-3.2 0-6.1-1.5-8-3.7-10 5.6-20.8 10.1-32.5 13.3q0 0.5 0 1c0 6-4.8 10.8-10.8 10.8-5.9 0-10.8-4.8-10.8-10.8 0-6 4.9-10.8 10.8-10.8 4 0 7.4 2.1 9.3 5.2 0.5 0.2 0.9 0.3 1.3 0.1 6.8-2.3 13.8-4.5 20.4-7.4q5.3-2.3 10.2-5.1-0.4-1.5-0.4-3.1c0-5.9 4.7-10.6 10.5-10.6 1.5 0 3 0.4 4.3 0.9 2.3-0.4 4.3-1.9 6.2-3.6 3.6-3.2 7.1-6.5 11.2-10.3-8.6 0-16.3 0-24 0.1q0 0-0.1 0c-1.2 4.5-5.3 7.7-10.1 7.7-5.8 0-10.6-4.7-10.6-10.5 0-5.8 4.8-10.5 10.6-10.5 4.8 0 8.9 3.3 10.1 7.7 8.9 0 17.7 0.1 26.5 0 0.9 0 2.2-0.5 2.9-1.2 13.1-14.7 22.4-31.5 27.5-50.6 3.1-11.3 3.7-23 2.8-34.6-0.8-10.9-3.1-19.3-4.3-23.4-5.8-19.7-16.4-34.2-24.7-43.3l-30.3 0.4c0.1 4-1.8 7.7-5.1 9.6-3.8 2.3-7.9 1.2-9 0.8-4.3-1.4-6.2-4.9-6.6-5.7q-3 1.9-6 3.8 0.1 0.3 0.1 0.6c0 3.7-3 6.7-6.8 6.7-3.7 0-6.7-3-6.7-6.7 0-3.8 3-6.8 6.7-6.8 2 0 3.7 0.8 4.9 2.1q3.2-2.1 6.4-4.3 0.2-0.2 0.4-0.4c0.2-5.8 4.9-10.4 10.8-10.4 4.4 0 8.2 2.7 9.9 6.5q0.3 0.1 0.6 0.1c8.9 0.1 17.8 0.1 26.6 0.1 0.3 0 0.5-0.2 1.3-0.4-3.6-3.6-6.9-7-10.4-10.3q-0.1-0.1-0.2-0.1c-1.3 0.5-2.6 0.8-4.1 0.8-6 0-10.8-4.8-10.8-10.8q0-1.5 0.4-2.9c-6.5-4.5-13.3-8.5-20.7-11.7-6.6-2.9-13.6-5.1-20.4-7.5-0.4-0.1-0.8 0-1.3 0.1-1.9 3.2-5.3 5.3-9.3 5.3-5.9 0-10.8-4.9-10.8-10.8 0-6 4.9-10.9 10.8-10.9 6 0 10.8 4.9 10.8 10.9q0 0.5 0 1c15.8 4.3 30 11 42.9 19.8 1.9-2.5 5-4.1 8.4-4.1 6 0 10.8 4.8 10.8 10.8 0 2.8-1.1 5.4-2.9 7.4 1 0.9 2.2 1.8 3.2 2.9 15.5 15.5 28.2 32.9 34.4 54.2 2 6.9 3.5 14.1 4.3 21.2 0.8 7.7 0.9 15.6 0.5 23.4zm-107.9-136.8c0-2.5-2-4.5-4.5-4.5-2.6 0-4.6 2-4.6 4.5 0 2.5 2 4.6 4.6 4.6 2.5 0 4.5-2.1 4.5-4.6zm62.4 27.2c0-2.6-2-4.6-4.6-4.6-2.5 0-4.5 2-4.5 4.6 0 2.5 2 4.5 4.5 4.5 2.6 0 4.6-2 4.6-4.5zm-24 25.6c0-2.5-2-4.5-4.5-4.5-2.6 0-4.6 2-4.6 4.5 0 2.6 2 4.6 4.6 4.6 2.5 0 4.5-2 4.5-4.6zm0.7 155.2c0-2.6-2.1-4.6-4.6-4.6-2.5 0-4.5 2-4.5 4.6 0 2.5 2 4.5 4.5 4.5 2.5 0 4.6-2 4.6-4.5zm-39.2 47.7c0-2.6-2.1-4.6-4.6-4.6-2.5 0-4.6 2-4.6 4.6 0 2.5 2.1 4.5 4.6 4.5 2.5 0 4.6-2 4.6-4.5zm51.6-21.8c0-2.5-2-4.5-4.5-4.5-2.6 0-4.6 2-4.6 4.5 0 2.5 2 4.6 4.6 4.6 2.5 0 4.5-2.1 4.5-4.6z"/>
			<path id="&lt;Path&gt;" class="s1" d="m177.7 202c10.6 3.7 22.1 4.1 34.2 1.7 5.4-1 9.2-2.6 10.2-3 19.8-7.8 30.1-25.6 31.9-28.9 11.3-20.1 11.3-45.5 0.7-65.8-7-13.4-17-21.3-22.9-25.3q-1 1.6-2.1 3.3c3.9 2.6 9 6.7 14 12.8 9.6 11.7 12.5 23.5 13.3 26.8 0.8 3.6 2.9 14.4-0.1 28-1.1 5.1-5 21.7-20.1 34.7-9.3 8-18.8 11.3-23.8 12.6-12.6 3.4-22.7 1.8-24.8 1.4-15.4-2.6-25.4-11.3-30.4-15.7-4.3-3.8-7.4-7.5-9.5-10.2q-1.3 1.6-2.7 3.3c1.9 2.4 4.6 5.6 8.2 9 4.5 4.2 12 11.2 23.9 15.3z"/>
			<path id="&lt;Compound Path&gt;" fill-rule="evenodd" class="s1" d="m125.7 265.1c0 6-4.9 10.8-10.8 10.8-6 0-10.9-4.8-10.9-10.8q0-0.5 0.1-1c-33-9.1-59-28.4-80.1-54.8-1.9 1.4-4.2 2.3-6.7 2.3-5.9 0-10.8-4.8-10.8-10.8 0-4.4 2.6-8.2 6.4-9.9-25-56.9-12.1-105.2 32.9-146.7-1-1.7-1.6-3.6-1.6-5.7 0-6 4.8-10.8 10.8-10.8 3.2 0 6 1.3 8 3.5 12.2-7.9 25.6-14.1 40.4-18.1q-0.1-0.5-0.1-1c0-6 4.9-10.9 10.8-10.9 6 0 10.9 4.9 10.9 10.9 0 5.9-4.9 10.8-10.9 10.8-3.9 0-7.3-2.1-9.2-5.3-0.5-0.1-1-0.2-1.3-0.1-6.9 2.4-13.8 4.6-20.5 7.5-6.3 2.7-12.2 6.1-17.9 9.8 0.4 1.2 0.6 2.4 0.6 3.7 0 6-4.8 10.8-10.8 10.8-1.1 0-2.2-0.2-2.2-0.2-1.7-0.4-3-1-3.9-1.4q-1.5 1.1-3.1 2.5c-4 3.5-7.1 7.1-9.7 10.5q14.7-0.1 29.3-0.2c0.6-1.2 1.5-3 3.2-4.6 0.5-0.5 2.4-2.3 4.7-2.9 1.4-0.4 3-0.4 3-0.4 0.8 0 4.8 0 7.8 3 3 3.1 3 6.9 2.9 7.7q6.3 3.5 12.5 7c1.2-1.2 2.9-2 4.8-2 3.7 0 6.7 3.1 6.7 6.8 0 3.7-3 6.7-6.7 6.7-3.8 0-6.8-3-6.8-6.7q0-0.7 0.2-1.4-5.7-3.1-11.5-6.2c-1.8 4.1-5.8 6.7-9.9 6.7-5.1 0-9.8-4-10.8-9.4q-10.4-0.2-21.3 0-5.7 0-11.2 0.2c-7.8 8.5-19.5 24-25.3 46.1-4 15.2-3.6 27.4-3.4 30.4 0.9 14.6 4.3 28.7 10.2 42.1 0.5 1.1 1.1 2.3 1.5 3.4q0.6 1.8 1.8 3c5.7 0.2 10.3 4.9 10.3 10.8 0 1.7-0.3 3.2-1 4.7 0.1 0.5 0.3 1.1 0.6 1.4q3.2 4 6.7 7.6c0.7 0.8 1.9 1.5 2.9 1.5q13.5 0.1 26.9 0c0.5-0.1 1-0.3 1.6-0.6 1.4-4.3 5.4-7.4 10.2-7.4 1.5 0 2.8 0.3 3.1 0.4 4.1 1.3 6 5 6.5 6q1.5-0.3 3-0.5c0.2-3.3 2.9-5.9 6.2-5.9 3.5 0 6.3 2.8 6.3 6.2 0 3.4-2.8 6.2-6.3 6.2-1.9 0-3.5-0.8-4.7-2.2q-1.6 0.4-3.3 0.7c0 5.9-4.8 10.7-10.8 10.7-5 0-9.2-3.4-10.4-8-8.1-0.1-16.2-0.1-25.2-0.1 4.6 4.1 8.4 7.7 12.4 11 9.5 7.9 19.7 14.8 31 19.7 6.7 2.8 13.6 5.1 20.5 7.4 0.3 0.1 0.8 0.1 1.3-0.1 1.9-3.1 5.3-5.2 9.3-5.2 5.9 0 10.8 4.8 10.8 10.8zm-54.1-46.4c0 2.5 2 4.6 4.6 4.6 2.5 0 4.5-2.1 4.5-4.6 0-2.5-2-4.5-4.5-4.5-2.6 0-4.6 2-4.6 4.5zm0.3-155.1c0 2.6 2.1 4.6 4.6 4.6 2.5 0 4.6-2 4.6-4.6 0-2.5-2.1-4.5-4.6-4.5-2.5 0-4.6 2-4.6 4.5zm37.6-51.9c0 2.5 2.1 4.5 4.6 4.5 2.5 0 4.6-2 4.6-4.5 0-2.6-2.1-4.6-4.6-4.6-2.5 0-4.6 2-4.6 4.6zm-59.5 26.3c0 2.5 2 4.5 4.5 4.5 2.6 0 4.6-2 4.6-4.5 0-2.6-2-4.6-4.6-4.6-2.5 0-4.5 2-4.5 4.6zm-28.4 162.6c0-2.6-2-4.6-4.5-4.6-2.5 0-4.6 2-4.6 4.6 0 2.5 2.1 4.5 4.6 4.5 2.5 0 4.5-2 4.5-4.5zm98.2 64.6c0-2.5-2-4.6-4.6-4.6-2.5 0-4.5 2.1-4.5 4.6 0 2.5 2 4.6 4.5 4.6 2.6 0 4.6-2.1 4.6-4.6z"/>
			<path id="&lt;Compound Path&gt;" fill-rule="evenodd" class="s1" d="m115 223.2q-3.7 3.8-7.4 7.6c0.7 1.4 1.1 3 1.1 4.7 0 6-4.8 10.8-10.8 10.8-6 0-10.8-4.8-10.8-10.8 0-6 4.8-10.8 10.8-10.8 2.2 0 4.3 0.6 6 1.8 0.5-0.1 1-0.3 1.2-0.5q6.6-6 12.9-12.3 0.2-0.2 0.3-0.5l0.3-0.8v-11.4l4.3-2.7v16.6l-1.1 1.2zm-12.7 12.3c0-2.5-2-4.5-4.5-4.5-2.6 0-4.6 2-4.6 4.5 0 2.6 2 4.6 4.6 4.6 2.5 0 4.5-2 4.5-4.6z"/>
			<path id="&lt;Compound Path&gt;" fill-rule="evenodd" class="s1" d="m168.1 233.9c0-1.7 0.4-3.3 1.1-4.7q-3.7-3.8-7.3-7.5l-6.9-7.2-1.1-1.2v-16.6l4.4 2.8v11.4l0.2 0.7q0.1 0.3 0.4 0.5c4.1 4.2 8.4 8.3 12.8 12.3 0.3 0.3 0.7 0.4 1.2 0.5 1.8-1.1 3.8-1.8 6-1.8 6 0 10.8 4.8 10.8 10.8 0 6-4.8 10.8-10.8 10.8-5.9 0-10.8-4.8-10.8-10.8zm6.4 0.3c0 2.5 2 4.5 4.5 4.5 2.6 0 4.6-2 4.6-4.5 0-2.6-2-4.6-4.6-4.6-2.5 0-4.5 2-4.5 4.6z"/>
			<path id="&lt;Compound Path&gt;" fill-rule="evenodd" class="s1" d="m109 40.2c0 1.7-0.4 3.3-1.1 4.7q3.7 3.8 7.4 7.5l6.8 7.2 1.1 1.1v16.7l-4.3-2.8v-11.4l-0.3-0.7q-0.1-0.3-0.3-0.6c-4.2-4.1-8.5-8.3-12.8-12.2-0.3-0.3-0.8-0.4-1.3-0.5-1.7 1.1-3.8 1.8-6 1.8-6 0-10.8-4.9-10.8-10.8 0-6 4.8-10.8 10.8-10.8 6 0 10.8 4.8 10.8 10.8zm-6.2-0.3c0-2.5-2-4.6-4.5-4.6-2.6 0-4.6 2.1-4.6 4.6 0 2.5 2 4.6 4.6 4.6 2.5 0 4.5-2.1 4.5-4.6z"/>
			<path id="&lt;Compound Path&gt;" fill-rule="evenodd" class="s1" d="m162.2 54q3.7-3.8 7.3-7.5c-0.7-1.5-1.1-3.1-1.1-4.8 0-5.9 4.9-10.8 10.8-10.8 6 0 10.9 4.9 10.9 10.8 0 6-4.9 10.9-10.9 10.9-2.2 0-4.2-0.7-5.9-1.9-0.5 0.1-1 0.3-1.3 0.6-4.4 3.9-8.6 8-12.8 12.2q-0.2 0.2-0.4 0.5l-0.2 0.8v11.4l-4.3 2.8v-16.7l1.1-1.2zm12.5-12.5c0 2.5 2 4.5 4.6 4.5 2.5 0 4.5-2 4.5-4.5 0-2.5-2-4.6-4.5-4.6-2.6 0-4.6 2.1-4.6 4.6z"/>
			<path id="&lt;Compound Path&gt;" fill-rule="evenodd" class="s1" d="m150.8 235.7c0 5.7-4 10.4-9.4 11.6v20.3h-4.9q0-10.2 0-20.3c-5.4-1.2-9.4-5.9-9.4-11.6 0-5.7 4-10.5 9.4-11.6q0-18 0-36 2.5-2.1 4.9-4.2v40.2c5.4 1.1 9.4 5.9 9.4 11.6zm-5.9-0.1c0-3.3-2.7-6-5.9-6-3.3 0-6 2.7-6 6 0 3.3 2.7 5.9 6 5.9 3.2 0 5.9-2.6 5.9-5.9z"/>
			<path id="&lt;Compound Path&gt;" fill-rule="evenodd" class="s1" d="m127.1 33.7c0-5.7 4-10.5 9.4-11.6v-20.3h4.8q0 10.1 0 20.3c5.4 1.1 9.5 5.9 9.5 11.6 0 5.7-4.1 10.5-9.5 11.6q0 18 0 36-2.4 2-4.8 4.1v-40.1c-5.4-1.1-9.4-5.9-9.4-11.6zm5.6-0.3c0 3.3 2.7 5.9 5.9 5.9 3.3 0 6-2.6 6-5.9 0-3.3-2.7-6-6-6-3.2 0-5.9 2.7-5.9 6z"/>
		</g>
		<path id="Innovation &amp; Consultation " fill-rule="evenodd" class="s1" d="m303.3 175.8v24.2h-3.1v-24.2zm5.3 6.2h2.9l0.1 2.3q2.1-2.6 5.4-2.6 5.7 0 5.7 6.4v11.9h-3v-11.9q-0.1-1.9-0.9-2.9-0.9-0.9-2.7-0.9-1.5 0-2.7 0.8-1.1 0.8-1.7 2.1v12.8h-3.1zm18.8 0h2.9l0.1 2.3q2-2.6 5.3-2.6 5.7 0 5.8 6.4v11.9h-3.1v-11.9q0-2-0.9-2.9-0.8-0.9-2.7-0.9-1.5 0-2.6 0.8-1.1 0.8-1.8 2.1v12.8h-3zm17.9 9v-0.2q0-2.7 1-4.8 1.1-2.1 2.9-3.2 1.9-1.2 4.3-1.2 3.6 0 5.9 2.6 2.3 2.5 2.3 6.7v0.2q0 2.7-1.1 4.8-0.9 2-2.8 3.2-1.9 1.2-4.3 1.2-3.7 0-5.9-2.6-2.3-2.5-2.3-6.7zm3.1 0.1q0 3 1.4 4.8 1.4 1.9 3.7 1.9 2.3 0 3.7-1.9 1.4-1.8 1.4-5.1 0-3-1.4-4.8-1.4-1.8-3.7-1.8-2.3 0-3.7 1.8-1.4 1.8-1.4 5.1zm18.2-9.1l4.6 13.8 4.4-13.8h3.2l-6.5 17.9h-2.3l-6.5-17.9zm29.2 17.9h-3.3q-0.2-0.5-0.4-1.9-2.1 2.3-5.1 2.3-2.7 0-4.4-1.5-1.7-1.5-1.7-3.9 0-2.8 2.2-4.3 2.1-1.6 6-1.6h3v-1.4q0-1.6-1-2.5-1-1-2.8-1-1.7 0-2.8 0.8-1.1 0.9-1.1 2h-3.1q0-1.3 0.9-2.5 1-1.3 2.6-2 1.7-0.8 3.6-0.8 3.1 0 4.9 1.6 1.8 1.5 1.8 4.3v8.2q0 2.5 0.7 4zm-8.4-2.4q1.5 0 2.8-0.7 1.3-0.8 1.9-2v-3.7h-2.5q-5.6 0-5.6 3.3 0 1.5 1 2.3 0.9 0.8 2.4 0.8zm13.6-20h3.1v4.4h3.4v2.4h-3.4v11.1q0 1.1 0.5 1.6 0.4 0.6 1.5 0.6 0.5 0 1.4-0.2v2.5q-1.2 0.3-2.3 0.3-2.1 0-3.1-1.3-1.1-1.2-1.1-3.5v-11.1h-3.2v-2.4h3.2zm13.4 4.3v18h-3.1v-18zm-3.3-4.7q0-0.8 0.4-1.3 0.5-0.5 1.4-0.5 0.9 0 1.4 0.5 0.4 0.5 0.4 1.3 0 0.7-0.4 1.2-0.5 0.5-1.4 0.5-0.9 0-1.4-0.5-0.4-0.5-0.4-1.2zm7.4 13.8v-0.2q0-2.7 1-4.8 1.1-2.1 2.9-3.2 1.9-1.2 4.3-1.2 3.6 0 5.9 2.6 2.3 2.5 2.3 6.7v0.2q0 2.7-1 4.7-1 2.1-2.9 3.3-1.9 1.1-4.3 1.1-3.7 0-5.9-2.5-2.3-2.5-2.3-6.7zm3.1 0.1q0 3 1.4 4.8 1.4 1.8 3.7 1.8 2.3 0 3.7-1.8 1.4-1.8 1.4-5.1 0-3-1.4-4.8-1.4-1.9-3.7-1.9-2.3 0-3.7 1.8-1.4 1.9-1.4 5.2zm17.1-9.2h2.9l0.1 2.3q2.1-2.6 5.4-2.6 5.7 0 5.7 6.4v11.9h-3v-11.9q0-1.9-0.9-2.8-0.9-1-2.7-1-1.5 0-2.7 0.8-1.1 0.8-1.7 2.1v12.8h-3.1zm26.5 11.5q0-1.8 1-3.2 1-1.5 3.7-3.4-1.6-2-2.1-3.2-0.6-1.2-0.6-2.4 0-2.7 1.6-4.3 1.7-1.5 4.5-1.5 2.5 0 4.1 1.4 1.6 1.5 1.6 3.7 0 1.4-0.7 2.7-0.8 1.2-2.6 2.6l-1.8 1.3 5.4 6.4q1.1-2.1 1.1-4.8h2.8q0 4.2-2 7l3.4 4.2h-3.7l-1.6-1.9q-1.2 1.1-2.9 1.6-1.6 0.6-3.3 0.6-3.6 0-5.7-1.9-2.2-1.8-2.2-4.9zm7.9 4.3q2.4 0 4.4-1.9l-5.9-7-0.5 0.4q-2.8 2-2.8 4.2 0 1.9 1.3 3.1 1.3 1.2 3.5 1.2zm-2.8-16.6q0 1.6 2 4l1.9-1.3q1.1-0.8 1.6-1.6 0.4-0.7 0.4-1.7 0-1.1-0.9-1.9-0.8-0.7-2.1-0.7-1.3 0-2.1 0.9-0.8 0.9-0.8 2.3zm40.2 11.1h3.2q-0.4 3.8-2.8 5.9-2.4 2.1-6.4 2.1-4.2 0-6.8-3.1-2.6-3-2.6-8.2v-2.3q0-3.4 1.2-5.9 1.2-2.6 3.4-4 2.2-1.3 5.1-1.3 3.9 0 6.2 2.1 2.3 2.2 2.7 6h-3.2q-0.4-2.9-1.8-4.2-1.4-1.3-3.9-1.3-3 0-4.8 2.2-1.7 2.3-1.7 6.5v2.3q0 3.9 1.6 6.3 1.7 2.3 4.6 2.3 2.7 0 4.1-1.2 1.4-1.2 1.9-4.2zm6.3-1.3v-0.2q0-2.6 1-4.7 1-2.1 2.9-3.3 1.8-1.1 4.2-1.1 3.7 0 5.9 2.5 2.3 2.6 2.3 6.8v0.2q0 2.6-1 4.7-1 2.1-2.9 3.2-1.8 1.2-4.3 1.2-3.6 0-5.9-2.5-2.2-2.6-2.2-6.8zm3 0.2q0 3 1.4 4.8 1.4 1.8 3.7 1.8 2.4 0 3.8-1.8 1.3-1.9 1.3-5.2 0-2.9-1.4-4.8-1.4-1.8-3.7-1.8-2.3 0-3.7 1.8-1.4 1.8-1.4 5.2zm17.2-9.2h2.9l0.1 2.3q2-2.6 5.3-2.6 5.7 0 5.8 6.4v11.9h-3.1v-11.9q0-2-0.9-2.9-0.8-0.9-2.7-0.9-1.5 0-2.6 0.8-1.1 0.8-1.8 2.1v12.8h-3zm29.2 13.2q0-1.3-1-2-0.9-0.7-3.2-1.2-2.4-0.4-3.7-1.1-1.4-0.7-2.1-1.7-0.6-1-0.6-2.3 0-2.2 1.9-3.7 1.8-1.6 4.7-1.6 3.1 0 5 1.6 1.9 1.6 1.9 4.1h-3.1q0-1.3-1.1-2.2-1-0.9-2.7-0.9-1.6 0-2.6 0.7-0.9 0.7-0.9 1.9 0 1.1 0.8 1.7 0.9 0.5 3.2 1.1 2.3 0.5 3.7 1.2 1.5 0.7 2.2 1.7 0.7 1 0.7 2.5 0 2.4-2 3.8-1.9 1.5-5 1.5-2.1 0-3.8-0.8-1.6-0.8-2.6-2.1-0.9-1.4-0.9-3h3q0.1 1.6 1.3 2.5 1.1 0.9 3 0.9 1.8 0 2.8-0.7 1.1-0.8 1.1-1.9zm18.2 4.7l-0.1-1.7q-1.7 2.1-5.2 2.1-2.9 0-4.4-1.7-1.5-1.7-1.5-4.9v-11.7h3.1v11.6q0 4.1 3.3 4.1 3.5 0 4.7-2.7v-13h3v17.9zm11-25.5v25.5h-3.1v-25.5zm6 3.2h3.1v4.4h3.3v2.3h-3.3v11.2q0 1.1 0.4 1.6 0.5 0.5 1.5 0.5 0.6 0 1.5-0.2v2.5q-1.2 0.4-2.4 0.4-2 0-3.1-1.3-1-1.2-1-3.5v-11.2h-3.3v-2.3h3.3zm24.3 22.3h-3.2q-0.3-0.5-0.4-1.9-2.2 2.2-5.1 2.2-2.7 0-4.4-1.5-1.7-1.5-1.7-3.8 0-2.8 2.1-4.3 2.2-1.6 6-1.6h3v-1.4q0-1.6-0.9-2.6-1-0.9-2.9-0.9-1.6 0-2.7 0.8-1.2 0.8-1.2 2h-3q0-1.3 0.9-2.6 1-1.2 2.6-2 1.6-0.7 3.6-0.7 3.1 0 4.9 1.6 1.7 1.5 1.8 4.2v8.3q0 2.5 0.6 3.9zm-8.3-2.3q1.4 0 2.7-0.8 1.3-0.7 1.9-1.9v-3.7h-2.4q-5.6 0-5.6 3.3 0 1.5 0.9 2.3 1 0.8 2.5 0.8zm13.6-20h3.1v4.4h3.3v2.3h-3.3v11.2q0 1 0.4 1.6 0.5 0.5 1.5 0.5 0.6 0 1.5-0.2v2.5q-1.2 0.4-2.4 0.4-2 0-3.1-1.3-1-1.2-1-3.5v-11.2h-3.3v-2.3h3.3zm13.3 4.3v18h-3v-18zm-3.3-4.8q0-0.7 0.4-1.2 0.5-0.5 1.4-0.5 0.9 0 1.3 0.5 0.5 0.5 0.5 1.2 0 0.8-0.5 1.3-0.4 0.5-1.3 0.5-0.9 0-1.4-0.5-0.4-0.5-0.4-1.3zm7.4 13.8v-0.2q0-2.6 1-4.7 1-2.1 2.9-3.3 1.9-1.1 4.2-1.1 3.7 0 6 2.5 2.2 2.6 2.2 6.8v0.2q0 2.6-1 4.7-1 2.1-2.9 3.2-1.8 1.2-4.2 1.2-3.7 0-6-2.5-2.2-2.6-2.2-6.8zm3.1 0.2q0 3 1.3 4.8 1.4 1.8 3.8 1.8 2.3 0 3.7-1.8 1.4-1.9 1.4-5.2 0-2.9-1.5-4.8-1.3-1.8-3.7-1.8-2.2 0-3.6 1.8-1.4 1.8-1.4 5.2zm17.1-9.2h2.9l0.1 2.3q2-2.6 5.4-2.6 5.7 0 5.7 6.4v11.9h-3.1v-11.9q0-2-0.9-2.9-0.8-0.9-2.7-0.9-1.5 0-2.6 0.8-1.1 0.8-1.8 2.1v12.8h-3z"/>
		<g id="&lt;Group&gt;">
			<path id="&lt;Compound Path&gt;" class="s1" d="m297.1 97.2v-14.4h45.7q8.5 0 12.9 3.6 4.5 3.5 4.5 10.6v36.2q0 7.2-4.5 10.7-4.4 3.5-12.9 3.5h-22.8v14.1h-22.9v-57.2h22.9v28.8h17.3v-35.9z"/>
			<path id="&lt;Compound Path&gt;" class="s1" d="m434.3 111.6q0 7.2-4.4 10.7-4.5 3.5-12.9 3.5h-5.6v-28.6h-17.2v35.9h40.1v14.3h-45.7q-8.4 0-12.9-3.5-4.4-3.5-4.4-10.7v-36.2q0-7.1 4.4-10.6 4.5-3.6 12.9-3.6h28.4q8.4 0 12.9 3.6 4.4 3.6 4.4 10.6z"/>
			<path id="&lt;Compound Path&gt;" class="s1" d="m445.4 97q0-7.1 4.5-10.6 4.4-3.6 12.9-3.6h24.7v14.4h-19.2v50.2h-22.9z"/>
			<path id="&lt;Compound Path&gt;" class="s1" d="m498.6 97.2v-14.4h45.6q8.5 0 13 3.6 4.4 3.5 4.4 10.6v36.2q0 7.2-4.4 10.7-4.5 3.5-13 3.5h-22.7v14.1h-22.9v-57.2h22.9v28.8h17.2v-35.9z"/>
			<path id="&lt;Compound Path&gt;" class="s1" d="m635.8 111.6q0 7.2-4.5 10.7-4.4 3.5-12.9 3.5h-5.5v-28.6h-17.3v35.9h40.2v14.3h-45.7q-8.5 0-12.9-3.5-4.5-3.5-4.5-10.7v-36.2q0-7.1 4.5-10.6 4.4-3.6 12.9-3.6h28.3q8.5 0 12.9 3.6 4.5 3.6 4.5 10.6z"/>
			<path id="&lt;Compound Path&gt;" class="s1" d="m664.2 147.4q-8.4 0-12.9-3.5-4.4-3.5-4.4-10.7v-64.5h22.9v14.1h22.9v14.4h-22.9v35.9h19.2v14.3z"/>
			<path id="&lt;Compound Path&gt;" class="s1" d="m766.9 82.8v50.4q0 7.2-4.5 10.7-4.5 3.5-12.9 3.5h-28.3q-8.5 0-13-3.5-4.4-3.5-4.4-10.7v-50.4h22.9v50.3h17.2v-50.3z"/>
			<path id="&lt;Compound Path&gt;" class="s0" d="m800.9 83.1v28.2h17.2v-21h22.9v57.1h-22.9v-21.8h-17.2v21.8h-22.9v-64.4q0-7.2 4.4-10.7 4.5-3.5 12.9-3.5h45.7v14.3z"/>
			<path id="&lt;Compound Path&gt;" class="s0" d="m875 68.8v78.6h-22.9v-78.6z"/>
		</g>
	</g>
</svg>