<svg version="1.2" xmlns="http://www.w3.org/2000/svg" viewBox="0 0 458 238" width="458" height="238">
	<title>logo-1</title>
	<style>
		.s0 { fill: #0377eb } 
	</style>
	<g id="Background">
		<path id="Path 1" fill-rule="evenodd" class="s0" d="m60.4 0c33.7 0 56.6 0.4 60.6 1.1 3.6 0.6 9.9 2.1 14 3.5 4.1 1.3 11.3 4.5 15.9 7.1 5 2.9 11.3 7.6 15.6 11.8 3.9 3.9 8.9 9.7 11.1 13 2.2 3.3 5.4 9.1 7.2 13 1.8 3.9 4 9.7 4.8 13 0.9 3.3 1.8 9.6 2.1 14 0.3 4.4 0 11.8-0.6 16.5-0.7 4.7-2.4 11.6-3.7 15.5-1.4 3.9-3.9 9.5-5.7 12.5-1.7 3-5.2 8-7.7 11-2.6 3-7.7 7.8-11.6 10.7-3.8 2.9-9.4 6.3-18.1 9.8l2.1 3.7c1.1 2.1 9.2 14.2 17.9 27 8.6 12.8 19.3 28.6 23.7 35 6.2 9.1 7.9 12.4 7.5 14.3-0.3 1.5-1.5 2.9-3.2 3.6-1.6 0.5-3.5 0.6-4.4 0.2-0.9-0.4-6.3-7.8-12-16.3-5.7-8.5-10.7-16-11.2-16.5-0.4-0.5-5.8-8.6-12-18-6.1-9.4-12.7-18.5-14.4-20.3-2.2-2.1-5.5-3.9-10-5.2-5-1.5-9.6-2-17.5-2-6 0-10.8 0.3-10.8 0.8 0 0.4 3.2 5.9 7.2 12.2 3.9 6.3 10.5 16.7 14.6 23 4.2 6.3 9.7 15 12.4 19.3 2.6 4.2 4.8 8 4.8 8.4 0 0.5 0.8 1.6 1.8 2.6 1.3 1.4 3.3 1.8 9 1.7 3.9 0 7.2-0.3 7.2-0.8 0-0.4-2.5-4.5-5.5-9.2-3.7-5.8-6.5-8.9-8.5-9.8-2.3-0.9-3-1.9-3-4 0-1.5 0.9-3.7 2.2-5 1.8-1.7 3.2-2.2 6.3-2 3.8 0.3 4.1 0.6 7 6.3 1.6 3.4 6.3 10.8 10.3 16.5 4.3 6.3 7.2 11.5 7.2 13 0 1.4-0.5 3.1-1.2 3.8-0.9 0.9-6 1.2-36.3 1.2l-4.5-7c-2.5-3.9-5.9-9.3-7.5-11.9-1.6-2.6-6.1-9.8-10-16-3.9-6.1-10.6-16.6-15-23.4-7.1-10.8-8.5-12.4-13-14.6-2.7-1.3-7.9-3-11.5-3.7-3.6-0.8-10-1.4-22-1.4v38.3c0 28.7-0.3 38.5-1.2 39.5-0.7 0.6-2.7 1.2-4.5 1.2-2.3 0-3.6-0.6-4.3-2-0.6-1.2-1-13.3-1-58h-3.2c-1.8 0-4.8 0.9-6.5 2-2.3 1.4-3.6 3.2-4.3 5.8-0.5 2-1.2 5.4-1.5 7.5-0.3 2-1.6 4.9-2.9 6.5-1.8 2-3.7 2.8-11.8 3.7l-0.3 32.9-2.5 1.3c-1.8 0.8-3 0.9-4.5 0.1-1.1-0.6-2.3-1.6-2.7-2.2-0.4-0.6-0.8-51.6-0.8-113.3 0-72.6 0.4-113.2 1-114.8 0.6-1.4 2-3.4 3.2-4.5 2.1-1.9 3.6-2 56.2-2zm70.6 167.5c1.4 0.4 3.1 1.4 3.8 2.3 0.7 0.9 1.5 2.8 1.8 4.2 0.3 1.5-0.1 3.4-1 4.7-0.9 1.3-2.8 2.6-4.3 2.9-1.6 0.4-3.9 0.3-5.3-0.2-1.4-0.5-3-2.2-3.5-3.7-0.7-2-0.6-3.4 0.4-5.4 0.7-1.5 2.3-3.3 3.5-4 1.1-0.7 3.2-1.1 4.6-0.8zm-106.5 44.5c0.8 0 2.7 0.6 4.3 1.4 1.5 0.7 3 2.1 3.5 3 0.4 0.9 0.7 2.7 0.7 4.1 0 1.6-1 3.3-2.7 4.5-1.6 1.2-3.9 2-5.3 2-1.4 0-3.5-1-4.8-2.3-1.3-1.3-2.2-3.3-2.2-5 0.1-1.5 1.2-3.9 2.5-5.2 1.3-1.4 3.1-2.5 4-2.5zm-13.7-199.3c-0.2 1.6-0.2 8.1 0 14.6l0.2 11.7c7.4 0.8 9.7 1.8 11 3.3 1.2 1.2 2.5 3.8 3 5.7 0.6 1.9 1 4.4 1 5.5-0.1 1.1 0.8 3.2 2 4.8 1.8 2.4 2.7 2.7 7.5 2.7h5.5c0-13 0.5-16.2 1.5-17.7 1.3-2 2.4-2.3 8.3-2.3h6.7c2.9-8.9 4.8-13.1 6-15 1.3-1.9 4.1-5.3 6.4-7.5 2.3-2.2 4.1-4.8 4.1-5.7 0-1-0.7-2-1.5-2.3-0.8-0.3-15-0.5-31.4-0.5h-30zm75.8-1.6c-1.2 0.6-1.9 1.9-1.8 3.4 0.1 1.3-0.4 3.7-1.2 5.2-0.7 1.5-3.1 4.3-5.2 6.1-2.1 1.9-4.9 5.1-6.1 7-1.3 2-2.3 4.7-2.3 5.9v2.3c30.6 0 42.4 0.4 46 1 3.6 0.6 9.2 2.3 12.5 3.8 3.3 1.5 8 4.5 10.4 6.7 2.4 2.2 5.8 6.4 7.6 9.5 1.8 3 3.8 7.8 4.4 10.7 0.6 2.9 1.1 7.5 1.1 10.3 0 2.7-0.8 7.5-1.8 10.7-1 3.2-3.2 7.9-5 10.5-1.7 2.6-5.3 6.2-7.9 7.9-2.7 1.8-7.2 4-10 5-4.7 1.7-9.1 1.9-40.3 1.9h-35c-0.4 8.1-0.4 14.6-0.2 19.7l0.2 9.3c67-0.1 71.3-0.3 78.8-2.1 4.5-1.1 11-3.3 14.5-5 3.4-1.7 8.6-5 11.6-7.3 3-2.3 7.3-6.6 9.6-9.6 2.4-3.1 5.9-8.7 7.8-12.5 1.9-3.9 4.2-10.5 5.1-14.8 0.9-4.3 1.6-11.7 1.6-16.5 0-5.9-0.6-10.9-1.9-15.2-1.1-3.6-3.3-9.5-4.9-13-1.5-3.6-4.6-9-6.8-12-2.3-3.1-6.5-7.7-9.5-10.4-3-2.7-7.2-5.9-9.4-7.2-2.2-1.3-7.6-3.9-12-5.8-4.4-1.9-10.5-3.9-13.5-4.5-3-0.6-12-1.3-20-1.6-8.6-0.2-15.3 0-16.4 0.6zm-75.8 40.1c-0.3 0.7-0.3 11.8-0.2 24.8 0.2 12.9 0.3 25.6 0.3 28.2 0.1 4.5 0.2 4.7 2.9 4.7 1.8 0 4.2 1.3 7 3.8 3.7 3.2 4.4 4.6 5.3 9.8 0.6 3.3 1.9 6.5 2.8 7.2 0.9 0.7 3 1.6 4.6 2.1 1.7 0.6 4 0.8 5.3 0.6l2.2-0.4v-59.5c-11-1-14.9-2-17.2-3.4-2.1-1.2-4.6-3.8-5.7-5.9-1-2.1-2.1-5.8-2.4-8.2-0.3-2.5-0.6-4.7-0.6-4.8-0.1-0.1-1-0.2-2-0.2-1.1 0-2.1 0.5-2.3 1.2zm41 1.4c-0.2 0.5-0.3 1.4-0.1 2.1 0.2 0.7 0.3 13.2 0.3 27.8v26.5h68.5c10-5.1 14.2-8.1 15.7-10 1.6-2 3.6-6 4.4-9 1.1-3.9 1.4-7.2 0.9-11-0.4-3.1-1.9-7.8-3.3-10.5-1.4-2.8-3.9-6.3-5.6-7.9-1.7-1.6-5.6-4.1-8.6-5.5l-5.5-2.6c-51.4-0.5-66.5-0.3-66.7 0.1zm-40.8 138.3c4-0.4 4.6-1.5 5.5-6 0.6-3 1.6-6.3 2.2-7.5 0.6-1.1 2.9-3.6 5.2-5.7 2.3-2.1 5.8-4.2 7.9-4.7 2-0.5 4.9-1.2 6.5-1.5l2.7-0.6-0.5-22.5c-12.2-1.2-14.8-2.1-17.2-3.9-1.8-1.4-3.8-3.6-4.5-4.8-0.6-1.2-1.6-4.7-2.3-7.8-0.8-4.4-1.5-5.5-3.2-5.8l-2.1-0.3zm14.1-169c1.1 0.8 1.9 2.2 1.9 3 0 0.8-0.5 2.1-1.2 2.8-0.7 0.6-2.2 1.2-3.3 1.3-1.1 0-2.6-0.7-3.3-1.5-0.7-0.9-1-2.7-0.6-4 0.3-1.4 1.4-2.6 2.6-2.8 1.1-0.1 2.9 0.4 3.9 1.2zm17.2-1.6c1.8 0.4 3.9 1.7 4.9 2.9 0.9 1.2 1.7 3.2 1.7 4.5 0.1 1.2-0.3 2.9-0.7 3.9-0.4 0.9-2 2.2-3.5 3-1.5 0.7-3.2 1.3-3.7 1.3-0.6 0-2.4-1.1-4-2.5-2.2-1.8-3-3.3-3-5.5 0-1.9 1-4.1 2.6-5.6 2.1-2.1 3.2-2.5 5.7-2zm63.2-0.4c1.1 0 3 0.7 4.2 1.5 1.3 0.8 2.5 3 2.8 4.8 0.4 2.1 0 4-1 5.5-0.8 1.2-2.7 2.7-4 3.2-1.8 0.7-3.3 0.6-5.2-0.2-1.4-0.7-3.2-2.5-4-4-1-2-1.1-3.5-0.3-5.3 0.5-1.4 2-3.2 3.2-4 1.3-0.8 3.2-1.5 4.3-1.5zm34.7 8.1c0.4-0.1 2 0.5 3.5 1.3 1.5 0.7 3.1 2.1 3.5 3 0.4 0.9 0.8 2.5 0.8 3.6 0 1.1-1.3 3.2-2.8 4.5-1.5 1.4-3.6 2.6-4.7 2.6-1.1 0-3.3-0.9-4.8-2.1-1.7-1.2-2.7-2.9-2.7-4.5 0-1.4 0.5-3.4 1.2-4.5 0.6-1.2 2.1-2.5 3.2-3 1.2-0.5 2.4-0.9 2.8-0.9zm25 32.9c1 0 2.9 1.1 4.3 2.5 1.3 1.4 2.5 3.6 2.5 5 0 1.4-0.9 3.4-2 4.5-1.4 1.4-3.1 1.9-5.7 1.8-2.5-0.2-4.2-1.1-5.5-2.8-1.3-1.6-1.7-3.4-1.4-5 0.4-1.4 1.9-3.3 3.3-4.2 1.5-1 3.6-1.7 4.5-1.8zm-139.8 23c1.1-0.1 3.1 0.7 4.3 1.7 1.3 1 2.6 3.2 2.9 4.8 0.5 2.4 0.1 3.6-1.9 5.8q-2.6 2.7-5.7 2.7c-1.9 0-3.8-0.8-5-2.2-1.2-1.3-2.1-3.7-2.1-5.5-0.1-2.3 0.6-3.7 2.6-5.2 1.5-1.2 3.7-2.1 4.9-2.1zm138.7 8c2 0 3.5 0.9 4.9 2.8 1.1 1.5 2 3.7 2 5 0 1.2-0.8 2.9-1.8 3.8-0.9 0.9-2.5 2.1-3.5 2.5-0.9 0.5-2.5 0.6-3.5 0.3-0.9-0.4-2.8-1.6-4-2.8-1.3-1.1-2.3-3.3-2.4-4.8 0-1.8 0.9-3.3 2.7-4.7 1.5-1.2 4.1-2.1 5.6-2.1zm-26.1 27c2 0 3.8 1 5.5 2.8 1.4 1.5 2.5 3.5 2.5 4.5 0 0.9-1.3 3-2.8 4.6-1.6 1.8-3.5 2.8-4.7 2.6-1.1-0.2-2.5-0.4-3-0.4-0.6 0-1.9-1.5-2.9-3.3-1.1-2-1.6-4.2-1.2-5.5 0.3-1.3 1.3-3 2.1-3.8 0.9-0.8 2.9-1.5 4.5-1.5zm-71.5 6.6c1.1 0.3 2.8 1.6 3.8 2.7 0.9 1.2 1.7 3.3 1.7 4.7 0 1.4-0.6 3.4-1.4 4.5-0.7 1.1-2.6 2.4-4.2 2.8-2 0.5-3.6 0.3-5.2-0.8-1.2-0.8-2.7-2.6-3.2-4q-1-2.5 0-5c0.5-1.4 2.2-3.1 3.7-3.9 1.5-0.8 3.7-1.2 4.8-1zm39.5-0.6c0.2 0 1.7 1.2 3.3 2.7 1.9 2 2.7 3.8 2.7 6.1 0 2.3-0.8 3.8-2.8 5.2-1.5 1.2-3.6 2.1-4.7 2.1-1.1 0-3.3-1.2-4.8-2.6-1.7-1.5-2.7-3.5-2.8-5.2 0-1.6 0.8-3.5 1.8-4.5 1-0.9 2.9-2.1 4.3-2.7 1.3-0.5 2.7-1 3-1.1zm-81.2 23.2c1.4 0.2 3.3 1.4 4.4 2.8 1.8 2.4 1.8 2.7 0.4 5.8-1.3 2.6-2.2 3.2-4.6 3.2-1.7 0-3.9-0.9-5-2-1.1-1.1-2.1-2.7-2.2-3.7-0.1-0.9 0.9-2.7 2.2-4 1.5-1.5 3.3-2.3 4.8-2.1z"/>
		<path id="RenewAI  Software Solutions" class="s0" aria-label="RenewAI 
Software
Solutions"  d="m254.7 78l-7.5-10.8c4.4-1.9 6.9-5.6 6.9-10.6 0-7.5-5.6-12.2-14.6-12.2h-14.5v33.6h7.8v-9.4h6.7 0.4l6.5 9.4zm-8.5-21.4c0 3.6-2.4 5.8-7.2 5.8h-6.3v-11.7h6.3c4.8 0 7.2 2.2 7.2 5.9zm26.5 15.8c-3.4 0-5.8-1.3-6.9-3.9l19.1-3.7c0-8.2-6-13-13.3-13-8 0-13.8 5.6-13.8 13.3 0 7.7 5.8 13.3 14.7 13.3 4.7 0 8.3-1.5 10.7-4.2l-4-4.3c-1.8 1.7-3.8 2.5-6.5 2.5zm-1.1-14.9c3.1 0 5.4 1.7 6.1 4.4l-12.6 2.4c0.2-4.3 2.7-6.8 6.5-6.8zm34.1-5.7c-3.5 0-6.6 1.2-8.6 3.4v-3h-7.1v25.8h7.5v-12.8c0-4.7 2.6-6.9 6.2-6.9 3.3 0 5.2 1.9 5.2 6.1v13.6h7.5v-14.8c0-7.9-4.6-11.4-10.7-11.4zm30.7 20.6c-3.3 0-5.7-1.3-6.8-3.9l19.1-3.7c-0.1-8.2-6.1-13-13.4-13-7.9 0-13.8 5.6-13.8 13.3 0 7.7 5.8 13.3 14.7 13.3 4.7 0 8.3-1.5 10.7-4.2l-4-4.3c-1.8 1.7-3.7 2.5-6.5 2.5zm-1.1-14.9c3.2 0 5.4 1.7 6.1 4.4l-12.5 2.4c0.1-4.3 2.7-6.8 6.4-6.8zm51.8-5.3v13.7c0 4.2-1.4 6.2-4.6 6.2-3.2 0-4.7-2-4.7-6.2v-13.7h-7.5v13.7c0 4.2-1.5 6.2-4.7 6.2-3.1 0-4.5-2-4.5-6.2v-13.7h-7.5v14.2c0 7.6 4.1 12 11.9 12 3.8 0 6.6-1.1 8.6-3.7 2 2.7 4.9 3.7 8.5 3.7 7.7 0 12-4.4 12-12v-14.2zm29.8-8.4c-9.2 0-15.4 5.6-15.4 15.8v18.4h7.7v-8.1h15.4v8.1h7.7v-18.4c0-10.2-6.2-15.8-15.4-15.8zm-7.7 19.9v-4.8c0-5.7 3-8.5 7.7-8.5 4.6 0 7.7 2.8 7.7 8.5v4.8zm48.1-13.1v-6.2h-19.4v6.2h5.8v21.2h-5.8v6.2h19.4v-6.2h-5.8v-21.2zm-221.4 86c9.6 0 14.3-4.8 14.3-10.4 0-12.4-19.6-8.1-19.6-14.3 0-2.1 1.8-3.8 6.4-3.8 3 0 6.2 0.8 9.3 2.6l2.4-5.9c-3.1-2-7.4-3-11.6-3-9.6 0-14.2 4.8-14.2 10.5 0 12.5 19.5 8.1 19.5 14.4 0 2.1-1.8 3.6-6.4 3.6-4.1 0-8.3-1.4-11.1-3.5l-2.7 5.9c3 2.3 8.4 3.9 13.7 3.9zm31.4-0.2c8.2 0 14.1-5.5 14.1-13.3 0-7.8-5.9-13.3-14.1-13.3-8.3 0-14.3 5.5-14.3 13.3 0 7.8 6 13.3 14.3 13.3zm0-6.2c-3.8 0-6.7-2.6-6.7-7.1 0-4.5 2.9-7.2 6.7-7.2 3.7 0 6.5 2.7 6.5 7.2 0 4.5-2.8 7.1-6.5 7.1zm26.4-20.6c0-2.5 1.2-3.7 3.4-3.7 1.2 0 2.2 0.3 3 0.9l2-5.4c-1.4-1-3.5-1.4-5.7-1.4-6.4 0-10 3.8-10 9.6v26.4h7.5v-19.5h6.4v-5.7h-6.6zm24 19.8c-0.9 0.6-2 0.9-3.1 0.9-2 0-3.2-1.2-3.2-3.4v-10.5h6.4v-5.7h-6.4v-6.3h-7.5v22.6c0 6.2 3.5 9.3 9.7 9.3 2.2 0 4.5-0.5 6-1.6zm39.6-19.3v13.6c0 4.3-1.4 6.3-4.6 6.3-3.2 0-4.7-2-4.7-6.3v-13.6h-7.5v13.6c0 4.3-1.5 6.3-4.7 6.3-3.1 0-4.5-2-4.5-6.3v-13.6h-7.5v14.2c0 7.6 4.1 12 11.9 12 3.8 0 6.6-1.1 8.6-3.7 2 2.7 4.9 3.7 8.5 3.7 7.7 0 12-4.4 12-12v-14.2zm32.9 0v2.7c-1.9-2.1-4.6-3.1-7.7-3.1-7.3 0-12.9 5.2-12.9 13.3 0 8.1 5.6 13.3 12.9 13.3 3.4 0 6.2-1.1 8-3.4v3h7.2v-25.8zm-6.5 20c-3.7 0-6.6-2.7-6.6-7.1 0-4.5 2.9-7.2 6.6-7.2 3.7 0 6.6 2.7 6.6 7.2 0 4.4-2.9 7.1-6.6 7.1zm28-16.6v-3.4h-7.1v25.8h7.5v-12.2c0-5 2.7-7.2 6.8-7.2 0.6 0 1.1 0 1.7 0.1v-6.9c-4 0-7 1.3-8.9 3.8zm26.1 16.8c-3.3 0-5.7-1.3-6.8-3.9l19.1-3.7c-0.1-8.2-6.1-13-13.4-13-7.9 0-13.8 5.5-13.8 13.3 0 7.7 5.8 13.3 14.8 13.3 4.6 0 8.2-1.5 10.6-4.2l-4-4.3c-1.8 1.7-3.7 2.5-6.5 2.5zm-1.1-15c3.2 0 5.4 1.8 6.1 4.5l-12.5 2.4c0.1-4.4 2.7-6.9 6.4-6.9zm-200.7 78.2c9.6 0 14.2-4.8 14.2-10.5 0-12.3-19.5-8-19.5-14.2 0-2.1 1.8-3.9 6.4-3.9 2.9 0 6.2 0.9 9.3 2.7l2.4-5.9c-3.1-2-7.5-3-11.7-3-9.5 0-14.2 4.8-14.2 10.5 0 12.5 19.6 8.1 19.6 14.4 0 2.1-1.9 3.6-6.5 3.6-4 0-8.3-1.4-11.1-3.5l-2.6 5.9c3 2.3 8.3 3.9 13.7 3.9zm31.3-0.2c8.2 0 14.2-5.6 14.2-13.3 0-7.8-6-13.3-14.2-13.3-8.2 0-14.2 5.5-14.2 13.3 0 7.7 6 13.3 14.2 13.3zm0-6.2c-3.7 0-6.6-2.7-6.6-7.1 0-4.5 2.9-7.2 6.6-7.2 3.7 0 6.6 2.7 6.6 7.2 0 4.4-2.9 7.1-6.6 7.1zm28.4 6.2c1.3 0 2.6-0.2 3.9-0.7l-0.3-5.8c-0.5 0.3-1.3 0.5-2.1 0.5-2.1 0-3.3-1.2-3.3-3.4v-26.6h-7.4v27c0 5.8 3.4 9 9.2 9zm26.1-26.2v12.7c0 4.8-2.5 7-5.9 7-3.3 0-5.3-1.9-5.3-6.3v-13.4h-7.4v14.6c0 7.9 4.5 11.6 11 11.6 3.2 0 6-1.2 8-3.5v3.1h7.1v-25.8zm28 19.3c-0.8 0.6-1.9 0.9-3 0.9-2 0-3.2-1.2-3.2-3.4v-10.5h6.4v-5.8h-6.4v-6.3h-7.5v22.7c0 6.1 3.5 9.3 9.7 9.3 2.2 0 4.5-0.6 6-1.7zm10-22.9c2.7 0 4.6-1.8 4.6-4.3 0-2.3-1.9-4-4.6-4-2.8 0-4.7 1.8-4.7 4.2 0 2.3 1.9 4.1 4.7 4.1zm-3.8 29.5h7.5v-25.9h-7.5zm26.7 0.4c8.3 0 14.2-5.5 14.2-13.3 0-7.7-5.9-13.3-14.2-13.3-8.2 0-14.2 5.6-14.2 13.3 0 7.8 6 13.3 14.2 13.3zm0-6.1c-3.7 0-6.6-2.7-6.6-7.2 0-4.4 2.9-7.1 6.6-7.1 3.8 0 6.6 2.7 6.6 7.1 0 4.5-2.8 7.2-6.6 7.2zm34.9-20.5c-3.5 0-6.5 1.2-8.6 3.4v-3h-7.1v25.8h7.5v-12.7c0-4.8 2.6-7 6.2-7 3.3 0 5.2 1.9 5.2 6.1v13.6h7.5v-14.7c0-7.9-4.6-11.5-10.7-11.5zm26.2 26.6c7.7 0 12.1-3.4 12.1-8.2 0-10.2-15.6-5.9-15.6-10.3 0-1.3 1.5-2.4 4.8-2.4 2.4 0 4.9 0.5 7.5 1.9l2.5-5.3c-2.5-1.5-6.4-2.3-10-2.3-7.5 0-11.9 3.5-11.9 8.4 0 10.3 15.6 6 15.6 10.2 0 1.4-1.3 2.4-4.8 2.4-3.1 0-6.6-1-8.9-2.5l-2.5 5.3c2.4 1.6 6.8 2.8 11.2 2.8z"/>
	</g>
</svg>